<?xml version="1.0" encoding="UTF-8" standalone="no"?>
<svg
   xmlns:dc="http://purl.org/dc/elements/1.1/"
   xmlns:cc="http://creativecommons.org/ns#"
   xmlns:rdf="http://www.w3.org/1999/02/22-rdf-syntax-ns#"
   xmlns:svg="http://www.w3.org/2000/svg"
   xmlns="http://www.w3.org/2000/svg"
   xmlns:sodipodi="http://sodipodi.sourceforge.net/DTD/sodipodi-0.dtd"
   xmlns:inkscape="http://www.inkscape.org/namespaces/inkscape"
   version="1.1"
   id="Layer_1"
   x="0px"
   y="0px"
   width="277.75"
   height="278.5"
   viewBox="0 0 277.75 278.5"
   enable-background="new 0 0 512 512"
   xml:space="preserve"
   inkscape:version="0.48.4 r9939"
   sodipodi:docname="uni2684-x2684.svg"><metadata
     id="metadata3335"><rdf:RDF><cc:Work
         rdf:about=""><dc:format>image/svg+xml</dc:format><dc:type
           rdf:resource="http://purl.org/dc/dcmitype/StillImage" /></cc:Work></rdf:RDF></metadata><defs
     id="defs3333" /><sodipodi:namedview
     pagecolor="#ffffff"
     bordercolor="#666666"
     borderopacity="1"
     objecttolerance="10"
     gridtolerance="10"
     guidetolerance="10"
     inkscape:pageopacity="0"
     inkscape:pageshadow="2"
     inkscape:window-width="640"
     inkscape:window-height="480"
     id="namedview3331"
     showgrid="false"
     fit-margin-top="0"
     fit-margin-left="0"
     fit-margin-right="0"
     fit-margin-bottom="0"
     inkscape:zoom="0.4609375"
     inkscape:cx="240.75"
     inkscape:cy="190.75"
     inkscape:window-x="0"
     inkscape:window-y="0"
     inkscape:window-maximized="0"
     inkscape:current-layer="Layer_1" /><path
     d="m 54.5,80.75 q 0,-8 3.5,-13.25 4,-5.5 9.75,-9.5 5,-3.5 13,-3.5 8,0 13.25,3.5 5.5,3.75 9.5,9.5 3.5,5.25 3.5,13.25 0,7.75 -3.5,13 -3.75,5.75 -9.5,9.75 -5.25,3.5 -13.25,3.5 -7.75,0 -13,-3.5 -5.75,-4 -9.75,-9.75 -3.5,-5 -3.5,-13 z m 116.25,117 q 0,-7.75 3.5,-13 3.75,-5.75 9.5,-9.5 5.25,-3.5 13.25,-3.5 7.75,0 13,3.5 5.75,3.75 9.75,9.5 3.5,5.25 3.5,13 0,8 -3.5,13.25 -4,5.75 -9.75,9.5 -5,3.75 -13,3.75 -8,0 -13.25,-3.75 -5.5,-3.75 -9.5,-9.5 -3.5,-5.25 -3.5,-13.25 z m -116.25,0 q 0,-7.75 3.5,-13 4,-5.75 9.75,-9.5 5,-3.5 13,-3.5 8,0 13.25,3.5 5.5,3.75 9.5,9.5 3.5,5.25 3.5,13 0,8 -3.5,13.25 -3.75,5.75 -9.5,9.5 -5.25,3.75 -13.25,3.75 -7.75,0 -13,-3.75 Q 62,216.75 58,211 54.5,205.75 54.5,197.75 z m 116.25,-117 q 0,-8 3.5,-13.25 Q 178,62 183.75,58 189,54.5 197,54.5 q 7.75,0 13,3.5 5.75,3.75 9.75,9.5 3.5,5.25 3.5,13.25 0,7.75 -3.5,13 -4,5.75 -9.75,9.75 -5,3.5 -13,3.5 -8,0 -13.25,-3.5 -5.5,-4 -9.5,-9.75 -3.5,-5 -3.5,-13 z m -58.25,58 q 0,-7.75 3.5,-13 4,-5.75 9.75,-9.75 5,-3.5 13,-3.5 8,0 13.25,3.5 5.5,4 9.5,9.75 3.5,5 3.5,13 0,8 -3.5,13.25 -3.75,5.5 -9.5,9.5 -5.25,3.5 -13.25,3.5 -7.75,0 -13,-3.5 -5.75,-3.75 -9.75,-9.5 -3.5,-5.25 -3.5,-13.25 z M 0,278.5 V 0 H 277.75 V 278.5 H 0 z m 30.75,-31 h 216 V 31 h -216 v 216.5 z"
     id="path3329"
     inkscape:connector-curvature="0" /></svg>